<?xml version="1.0" encoding="UTF-8" standalone="no"?>
<!-- Uploaded to: SVG Repo, www.svgrepo.com, Generator: SVG Repo Mixer Tools -->

<svg
   width="800"
   height="800"
   viewBox="0 0 24 24"
   id="Layer_1"
   data-name="Layer 1"
   version="1.1"
   sodipodi:docname="sunrise-svgrepo-com.svg"
   xmlns:inkscape="http://www.inkscape.org/namespaces/inkscape"
   xmlns:sodipodi="http://sodipodi.sourceforge.net/DTD/sodipodi-0.dtd"
   xmlns="http://www.w3.org/2000/svg"
   xmlns:svg="http://www.w3.org/2000/svg">
  <sodipodi:namedview
     id="namedview12"
     pagecolor="#ffffff"
     bordercolor="#000000"
     borderopacity="0.25"
     inkscape:showpageshadow="2"
     inkscape:pageopacity="0.0"
     inkscape:pagecheckerboard="0"
     inkscape:deskcolor="#d1d1d1">
    <inkscape:page
       x="0"
       y="0"
       width="24"
       height="24"
       id="page2"
       margin="0"
       bleed="0" />
  </sodipodi:namedview>
  <defs
     id="defs1">
    <style
       id="style1">.cls-1{fill:none;stroke:#020202;stroke-miterlimit:10;stroke-width:1.92px;}</style>
  </defs>
  <g
     id="g12">
    <line
       class="cls-1"
       x1="12"
       y1="0.47"
       x2="12"
       y2="2.3900001"
       id="line1" />
    <line
       class="cls-1"
       x1="23.5"
       y1="11.97"
       x2="21.58"
       y2="11.97"
       id="line2" />
    <line
       class="cls-1"
       x1="2.4200001"
       y1="11.97"
       x2="0.5"
       y2="11.97"
       id="line3" />
    <line
       class="cls-1"
       x1="12"
       y1="0.47"
       x2="12"
       y2="3.3966227"
       id="line4" />
    <line
       class="cls-1"
       x1="23.5"
       y1="11.97"
       x2="20.838278"
       y2="11.97"
       id="line5" />
    <line
       class="cls-1"
       x1="3.4266226"
       y1="11.97"
       x2="0.5"
       y2="11.97"
       id="line6" />
    <line
       class="cls-1"
       x1="20.129999"
       y1="3.8399999"
       x2="18.780001"
       y2="5.1900001"
       id="line7" />
    <line
       class="cls-1"
       x1="5.2199998"
       y1="5.1900001"
       x2="3.8699999"
       y2="3.8399999"
       id="line8" />
    <line
       class="cls-1"
       x1="20.129999"
       y1="3.8399999"
       x2="18.780001"
       y2="5.1900001"
       id="line9" />
    <line
       class="cls-1"
       x1="5.2199998"
       y1="5.1900001"
       x2="3.8699999"
       y2="3.8399999"
       id="line10" />
    <path
       class="cls-1"
       d="m 16,17 c 0,0 1,-1 1,-1 A 5.58,5.58 0 0 0 18.71,12 6.71,6.71 0 1 0 5.29,12 6.57,6.57 0 0 0 7,16.38"
       id="path10" />
    <path
       class="cls-1"
       d="m 0.5,16.28 c 1.44,0 1.44,1 2.87,1 1.43,0 1.44,-1 2.88,-1 1.44,0 1.1121192,0.417219 2.5521192,0.417219 1.4399998,0 1.5989408,-1.635762 3.0289408,-1.635762 1.43,0 1.916821,1.529801 3.356821,1.529801 1.44,0 1.112119,-0.311258 2.552119,-0.311258 1.44,0 1.44,1 2.88,1 1.44,0 1.44,-1 2.88,-1"
       id="path11"
       sodipodi:nodetypes="csssssssc" />
    <path
       class="cls-1"
       d="m 3.37,21.4 c 1.44,0 1.44,-1 2.88,-1 1.44,0 1.43,1 2.87,1 1.44,0 1.44,-1 2.87,-1 1.43,0 1.44,1 2.88,1 1.44,0 1.43,-1 2.87,-1 1.44,0 1.44,1 2.88,1"
       id="path12" />
  </g>
</svg>
