<?xml version="1.0" encoding="UTF-8" standalone="no"?>
<!-- Uploaded to: SVG Repo, www.svgrepo.com, Generator: SVG Repo Mixer Tools -->

<svg
   width="800"
   height="800"
   viewBox="0 0 24 24"
   fill="none"
   version="1.1"
   id="svg2"
   sodipodi:docname="edit-3-svgrepo-com.svg"
   xmlns:inkscape="http://www.inkscape.org/namespaces/inkscape"
   xmlns:sodipodi="http://sodipodi.sourceforge.net/DTD/sodipodi-0.dtd"
   xmlns="http://www.w3.org/2000/svg"
   xmlns:svg="http://www.w3.org/2000/svg">
  <defs
     id="defs2" />
  <sodipodi:namedview
     id="namedview2"
     pagecolor="#ffffff"
     bordercolor="#000000"
     borderopacity="0.25"
     inkscape:showpageshadow="2"
     inkscape:pageopacity="0.0"
     inkscape:pagecheckerboard="0"
     inkscape:deskcolor="#d1d1d1">
    <inkscape:page
       x="0"
       y="0"
       width="24"
       height="24"
       id="page2"
       margin="0"
       bleed="0" />
  </sodipodi:namedview>
  <path
     d="m 21.2799,6.40005 -9.54,9.53995 c -0.95,0.95 -3.77003,1.39 -4.40003,0.76 -0.63,-0.63 -0.2,-3.45 0.75,-4.4 L 17.6399,2.75002 c 0.2355,-0.25694 0.5206,-0.46348 0.8382,-0.60718 0.3175,-0.1437 0.6609,-0.2216 1.0094,-0.22894 0.3484,-0.00733 0.6948,0.05601 1.0181,0.18622 0.3233,0.13021 0.6169,0.32461 0.863,0.57141 0.2461,0.2468 0.4397,0.5409 0.569,0.86456 0.1293,0.32367 0.1918,0.67017 0.1835,1.01862 -0.0083,0.34845 -0.0872,0.69164 -0.2317,1.00879 -0.1446,0.31715 -0.3519,0.60174 -0.6095,0.83655 z"
     stroke="#000000"
     stroke-width="1.5"
     stroke-linecap="round"
     stroke-linejoin="round"
     id="path1" />
  <path
     d="M 11,4 H 6 C 4.93913,4 3.92178,4.42142 3.17163,5.17157 2.42149,5.92172 2,6.93913 2,8 v 10 c 0,1.0609 0.42149,2.0783 1.17163,2.8284 C 3.92178,21.5786 4.93913,22 6,22 h 11 c 2.21,0 3,-1.8 3,-4 v -5"
     stroke="#000000"
     stroke-width="1.5"
     stroke-linecap="round"
     stroke-linejoin="round"
     id="path2" />
</svg>
