<?xml version="1.0" encoding="UTF-8" standalone="no"?>
<!-- Uploaded to: SVG Repo, www.svgrepo.com, Generator: SVG Repo Mixer Tools -->

<svg
   width="800"
   height="800"
   viewBox="-0.5 0 25 25"
   fill="none"
   version="1.1"
   id="svg4"
   sodipodi:docname="money-receive-svgrepo-com.svg"
   xmlns:inkscape="http://www.inkscape.org/namespaces/inkscape"
   xmlns:sodipodi="http://sodipodi.sourceforge.net/DTD/sodipodi-0.dtd"
   xmlns="http://www.w3.org/2000/svg"
   xmlns:svg="http://www.w3.org/2000/svg">
  <defs
     id="defs4" />
  <sodipodi:namedview
     id="namedview4"
     pagecolor="#ffffff"
     bordercolor="#000000"
     borderopacity="0.25"
     inkscape:showpageshadow="2"
     inkscape:pageopacity="0.0"
     inkscape:pagecheckerboard="0"
     inkscape:deskcolor="#d1d1d1"
     showgrid="false">
    <inkscape:page
       x="0"
       y="0"
       width="25"
       height="25"
       id="page2"
       margin="0"
       bleed="0" />
  </sodipodi:namedview>
  <path
     d="m 12.8702,16.97 v 1.1001 c 0,0.1777 -0.0707,0.348 -0.1963,0.4736 -0.1257,0.1257 -0.2961,0.1963 -0.4738,0.1963 -0.1777,0 -0.3481,-0.0706 -0.4737,-0.1963 -0.1257,-0.1256 -0.1962,-0.2959 -0.1962,-0.4736 V 16.9399 C 11.0867,16.8668 10.6625,16.7051 10.2828,16.4646 9.90316,16.2241 9.57575,15.9097 9.32013,15.54 9.21763,15.428 9.16061,15.2817 9.16016,15.1299 c -10e-5,-0.0866 0.01737,-0.1723 0.05139,-0.252 0.03402,-0.0796 0.0839,-0.1516 0.14654,-0.2114 0.06265,-0.0598 0.13675,-0.1064 0.2179,-0.1367 0.08114,-0.0304 0.16761,-0.0439 0.25415,-0.0398 0.08588,-5e-4 0.17076,0.0181 0.24856,0.0544 0.0779,0.0363 0.1467,0.0894 0.2015,0.1556 0.3198,0.4178 0.754,0.7338 1.25,0.9099 V 13.0701 C 10.2002,12.5401 9.53015,11.77 9.53015,10.76 9.55019,10.2193 9.7627,9.70353 10.1294,9.30566 10.4961,8.9078 10.9929,8.65407 11.5302,8.59009 V 7.47998 c 0,-0.17769 0.0705,-0.34823 0.1962,-0.47388 0.1256,-0.12565 0.296,-0.19604 0.4737,-0.19604 0.1777,0 0.3481,0.07039 0.4738,0.19604 0.1256,0.12565 0.1963,0.29619 0.1963,0.47388 v 1.1001 c 0.3737,0.05759 0.7319,0.18984 1.0532,0.38916 0.3213,0.19932 0.5992,0.46153 0.8168,0.77075 0.0882,0.11569 0.1403,0.25472 0.1499,0.39991 0.0027,0.0857 -0.0118,0.1712 -0.0428,0.2512 -0.031,0.08 -0.0777,0.1528 -0.1374,0.2144 -0.0597,0.0615 -0.1312,0.1106 -0.2101,0.144 -0.079,0.0334 -0.1639,0.0506 -0.2497,0.0505 -0.0894,-0.0011 -0.1776,-0.0213 -0.2586,-0.0593 -0.0811,-0.0379 -0.1531,-0.0927 -0.2113,-0.1606 -0.2385,-0.2979 -0.5528,-0.5261 -0.91,-0.66018 v 2.24998 l 0.25,0.1001 c 1.27,0.49 2.06,1.2099 2.06,2.3599 -0.0172,0.61 -0.2653,1.1909 -0.694,1.6252 -0.4287,0.4343 -1.0063,0.6898 -1.616,0.7149 z m -1.34,-5.3799 V 9.96997 c -0.1614,0.05853 -0.3004,0.16633 -0.3973,0.30813 -0.0968,0.1417 -0.1467,0.3103 -0.1427,0.4819 0.0082,0.17 0.0628,0.3345 0.1581,0.4756 0.0952,0.1411 0.2273,0.2533 0.3819,0.3245 z m 2.2,3.0698 c 0,-0.49 -0.34,-0.78 -0.86,-1 v 2 c 0.2455,-0.0345 0.4694,-0.159 0.6283,-0.3494 0.1589,-0.1903 0.2415,-0.4329 0.2317,-0.6806 z"
     fill="#000000"
     id="path1" />
  <path
     d="M 12.58,3.96997 H 6 C 4.93913,3.96997 3.92178,4.39146 3.17163,5.1416 2.42149,5.89175 2,6.9091 2,7.96997 V 17.97 c 0,1.0608 0.42149,2.0782 1.17163,2.8283 C 3.92178,21.5485 4.93913,21.97 6,21.97 h 12 c 1.0609,0 2.0783,-0.4215 2.8284,-1.1717 C 21.5786,20.0482 22,19.0308 22,17.97 v -6.0701"
     stroke="#000000"
     stroke-width="1.5"
     stroke-linecap="round"
     stroke-linejoin="round"
     id="path2" />
  <path
     d="m 21.9998,2.91992 -5.66,5.66"
     stroke="#000000"
     stroke-width="1.5"
     stroke-linecap="round"
     stroke-linejoin="round"
     id="path3" />
  <path
     d="m 20.8698,8.5798 h -4.53 v -4.53"
     stroke="#000000"
     stroke-width="1.5"
     stroke-linecap="round"
     stroke-linejoin="round"
     id="path4" />
</svg>
