<?xml version="1.0" encoding="UTF-8" standalone="no"?>
<!-- Generator: Adobe Illustrator 27.5.0, SVG Export Plug-In . SVG Version: 6.00 Build 0)  -->

<svg
   version="1.1"
   id="Layer_1"
   x="0px"
   y="0px"
   viewBox="0 0 48 47.999999"
   xml:space="preserve"
   sodipodi:docname="ramadhan poster.svg"
   width="48"
   height="48"
   inkscape:export-filename="..\TahfidhTracker\icons\male teacher icon.svg"
   inkscape:export-xdpi="1"
   inkscape:export-ydpi="1"
   xmlns:inkscape="http://www.inkscape.org/namespaces/inkscape"
   xmlns:sodipodi="http://sodipodi.sourceforge.net/DTD/sodipodi-0.dtd"
   xmlns="http://www.w3.org/2000/svg"
   xmlns:svg="http://www.w3.org/2000/svg"><defs
   id="defs10017" /><sodipodi:namedview
   id="namedview10017"
   pagecolor="#ffffff"
   bordercolor="#000000"
   borderopacity="0.25"
   inkscape:showpageshadow="2"
   inkscape:pageopacity="0.0"
   inkscape:pagecheckerboard="0"
   inkscape:deskcolor="#d1d1d1"
   showguides="true"><inkscape:page
     x="6.2779465e-05"
     y="2.8220258e-05"
     width="17606.371"
     height="22922.363"
     id="page2"
     margin="0"
     bleed="0" /></sodipodi:namedview>

<g
   id="g23"
   transform="matrix(1.0665575,0,0,1.0665575,-15994.336,-4808.3082)"><g
     id="g22"
     transform="matrix(1.5984297,0,0,1.5984297,-17410.087,-1297.0124)"><g
       id="g21"><path
         style="fill:#000000"
         d="m 21452.635,12431.971 -271.371,203.543 c -149.253,111.948 -310.101,228.817 -357.44,259.709 l -86.07,56.166 115.519,145.853 c 238.753,301.452 658.64,607.402 1144.526,833.961 522.387,243.578 1056.987,394.164 1855.637,522.695 48.454,7.797 246.673,14.484 440.488,14.858 321.532,0.62 335.933,-2.056 164.451,-30.572 -898.425,-149.397 -1926.849,-808.982 -2838.195,-1820.291 z"
         id="path19" /><path
         style="fill:#000000"
         d="m 27409.133,11244.297 c -85.869,4.582 -185.525,22.043 -348.938,55.047 -203.506,41.101 -623.732,155.613 -933.836,254.472 -1182.992,377.128 -1704.353,492.358 -2227.681,492.358 -576.446,0 -887.522,-113.991 -1258.754,-461.26 l -229.119,-214.33 -193.668,183.164 c -241.365,228.273 -350.37,438.679 -317.643,613.129 43.759,233.257 484.581,788.031 932.006,1172.93 610.603,525.274 1411.194,904.838 2131.967,1010.777 58.145,8.546 248.437,9.583 422.871,2.305 572.995,-23.909 1066.282,-209.485 2146.25,-807.428 1032.647,-571.742 1604.33,-794.304 2248.16,-875.234 l 356.607,-44.827 -190.681,-167.625 c -599.014,-526.576 -1670.51,-1088.551 -2271.322,-1191.255 -108.268,-18.508 -180.35,-26.805 -266.219,-22.223 z"
         id="path18" /><path
         style="fill:#000000"
         d="m 24698.979,6242.9883 c -106.009,5.0985 -212.773,18.1455 -319.211,39.5937 -756.671,152.475 -1256.366,624.4518 -1396.735,1319.2578 -62.9,311.346 -128.776,2945.1612 -79.197,3166.3922 45.228,201.813 115.268,335.909 236.328,452.452 117.172,112.8 406.599,252.793 613.766,296.871 83.8,17.83 382.3,26.255 663.332,18.724 526.859,-14.119 905.421,-73.074 1920.531,-299.086 271.342,-60.414 591.807,-119.417 712.145,-131.119 l 218.796,-21.277 -160.15,-106.08 c -203.174,-134.577 -318.9,-309.401 -366.963,-554.365 -20.826,-106.146 -52.113,-740.0796 -69.529,-1408.7426 -33.998,-1305.308 -62.719,-1540.3581 -228.069,-1866.6621 -297.896,-587.8697 -1002.982,-941.6489 -1745.044,-905.959 z"
         id="path11" /><path
         style="fill:#ffffff"
         d="m 24751.918,8011.0996 c 453.368,-3.67 909.014,62.4522 1274.279,199.1152 l 188.26,70.4356 -0.25,393.9082 c -0.313,494.845 -73.582,992.3299 -178.453,1211.6719 -138.793,290.2895 -667.784,756.9375 -1029.293,907.9865 -70.855,29.605 -165.017,53.13 -209.248,52.279 -329.255,-6.333 -1038.985,-546.689 -1240.584,-944.5272 -116.989,-230.866 -162.769,-501.4686 -186.24,-1100.8126 l -20.129,-513.9843 141.051,-56.4375 c 356.15,-142.503 807.239,-215.9648 1260.607,-219.6348 z"
         id="path10" /><path
         style="fill:#000000"
         d="m 24804.891,6884.7598 c 427.403,1.291 639.545,67.3247 933.838,290.6797 204.462,155.176 388.51,483.9796 426.494,761.9316 23.173,169.575 22.058,172.3051 -60.489,148.4141 -868.441,-251.354 -1585.055,-280.1651 -2294.463,-92.2481 -141.003,37.35 -292.049,78.2972 -335.658,90.9922 -96.169,27.997 -101.209,-22.9797 -29.068,-293.9727 107.812,-404.995 350.563,-662.7913 777.9,-826.1093 172.938,-66.093 278.804,-80.6025 581.446,-79.6875 z"
         id="path2" /></g></g></g></svg>
