<?xml version="1.0" encoding="UTF-8" standalone="no"?>
<!-- Uploaded to: SVG Repo, www.svgrepo.com, Generator: SVG Repo Mixer Tools -->

<svg
   version="1.1"
   id="Uploaded to svgrepo.com"
   width="800"
   height="800"
   viewBox="0 0 32 32"
   xml:space="preserve"
   sodipodi:docname="research-svgrepo-com.svg"
   xmlns:inkscape="http://www.inkscape.org/namespaces/inkscape"
   xmlns:sodipodi="http://sodipodi.sourceforge.net/DTD/sodipodi-0.dtd"
   xmlns="http://www.w3.org/2000/svg"
   xmlns:svg="http://www.w3.org/2000/svg"><defs
   id="defs2" /><sodipodi:namedview
   id="namedview2"
   pagecolor="#ffffff"
   bordercolor="#000000"
   borderopacity="0.25"
   inkscape:showpageshadow="2"
   inkscape:pageopacity="0.0"
   inkscape:pagecheckerboard="0"
   inkscape:deskcolor="#d1d1d1"><inkscape:page
     x="0"
     y="0"
     width="32"
     height="32"
     id="page2"
     margin="0"
     bleed="0" /></sodipodi:namedview>
<style
   type="text/css"
   id="style1">
	.hatch_een{fill:#265AA5;}
	.hatch_twee{fill:#FFC5BB;}
</style>
<g
   id="g2">
	<path
   class="hatch_twee"
   d="m 49.02649,19.541987 1,-1 v 1.414 l -1,1 z m -1,-2.84 c 0.342,0 0.645,0.176 0.825,0.429 l 1.175,-1.175 v -1.414 l -2.16,2.16 z m -2,7 c -0.318,0 -0.599,-0.147 -0.782,-0.378 l -1.218,1.218 v 0.16 h 1.254 l 1,-1 z m 3.254,1 0.746,-0.746 v -1.414 l -2.16,2.16 z m -4.254,-5.16 -1,1 v 1.414 l 1,-1 z m 20.471,0.943 0.872,-0.872 -0.197,-1.217 -0.872,0.872 z m -0.966,-4.129 c 0.215,0.155 0.36,0.389 0.402,0.651 l 0.006,0.036 0.872,-0.872 -0.197,-1.217 -1.28,1.291 c 0.073,0.031 0.131,0.064 0.197,0.111 z m -17.665,-10.6540002 -2.84,2.84 v 1.414 l 4.254,-4.254 z m -1,-3 -1.84,1.84 v 1.414 l 3.254,-3.254 z m 16.886,4.528 1.384,-1.384 -0.137,-0.844 -0.516,0.084 -2.418,2.418 z m 1.745,0.842 -5.23,5.2300002 0.197,1.217 5.23,-5.2300002 z m -3.242,11.2420002 -0.872,0.872 0.197,1.217 0.872,-0.872 z m 3.8,-7.801 -5.23,5.23 0.197,1.217 5.23,-5.23 z m -2.868,11.721 c -0.172,-0.124 -0.297,-0.292 -0.363,-0.491 l -0.883,0.883 0.177,1.091 0.175,-0.028 1.286,-1.286 c -0.142,-0.027 -0.272,-0.082 -0.392,-0.169 z m 4.543,-1.395 -2.35,2.35 1.688,-0.274 0.859,-0.859 z m -6.693,-13.1550002 c -0.05,0.008 -0.105,0.008 -0.154,0.001 l -1.175,1.175 0.197,1.2170002 2.637,-2.6370002 z m -12.171,-3.982 h 0.66 c 0.204,0 0.378,0.123 0.456,0.298 l 1.044,-1.044 v -1.254 h -0.16 z m -3.84,9.2540002 6,-6.0000002 v -1.414 l -6,6.0000002 z m 0,4 6,-6 v -1.414 l -6,6 z m 14.682,-12.0960002 -0.558,0.558 0.197,1.217 2.049,-2.049 z"
   id="path1" />
	<path
   class="hatch_een"
   d="m 13.261486,10.98458 c 0,0.251317 -0.203968,0.455284 -0.455285,0.455284 H 10.07449 c -0.2513172,0 -0.4552849,-0.203967 -0.4552849,-0.455284 0,-0.251318 0.2039677,-0.455285 0.4552849,-0.455285 h 2.731711 c 0.251317,0 0.455285,0.203967 0.455285,0.455285 z m 3.186995,-5.9187061 h 2.731711 c 0.251317,0 0.455285,-0.2039677 0.455285,-0.4552851 0,-0.2513173 -0.203968,-0.455285 -0.455285,-0.455285 h -2.731711 c -0.251317,0 -0.455285,0.2039677 -0.455285,0.455285 0,0.2513174 0.203968,0.4552851 0.455285,0.4552851 z M 6.4322096,7.7975843 H 3.7004991 c -0.2513173,0 -0.455285,0.2039677 -0.455285,0.4552851 0,0.2513174 0.2039677,0.4552851 0.455285,0.4552851 h 2.7317105 c 0.2513173,0 0.455285,-0.2039677 0.455285,-0.4552851 0,-0.2513174 -0.2039677,-0.4552851 -0.455285,-0.4552851 z M 13.261486,22.366706 v 4.552851 c 0,0.502634 -0.407936,0.91057 -0.91057,0.91057 h -1.821141 c -0.502635,0 -0.9105699,-0.407936 -0.9105699,-0.91057 v -4.552851 c 0,-0.502635 0.4079349,-0.91057 0.9105699,-0.91057 h 1.821141 c 0.502634,0 0.91057,0.407935 0.91057,0.91057 z m -0.91057,0 h -1.821141 v 4.552851 h 1.821141 z m 18.213224,5.367811 c 0.08013,0.496261 -0.256781,0.964294 -0.753042,1.044424 0,0 -5.489827,0.886895 -5.538998,0.886895 -0.190309,0 -0.376066,-0.05919 -0.532684,-0.172097 -0.195772,-0.141139 -0.327805,-0.354212 -0.366049,-0.592782 l -1.91675,-11.817379 v 11.657119 c 0,0.502635 -0.407935,0.91057 -0.91057,0.91057 h -5.463421 c -0.169366,0 -0.31961,-0.05919 -0.455285,-0.139317 -0.135675,0.08013 -0.285919,0.139317 -0.455285,0.139317 H 8.7086349 c -0.169366,0 -0.3196101,-0.05919 -0.4552851,-0.139317 -0.1356749,0.08013 -0.285919,0.139317 -0.455285,0.139317 H 2.3346439 c -0.5026347,0 -0.9105701,-0.407935 -0.9105701,-0.91057 V 5.9764441 c 0,-0.5026348 0.4079354,-0.9105702 0.9105701,-0.9105702 h 5.4634209 c 0.5026347,0 0.9105701,0.4079354 0.9105701,0.9105702 V 7.7975843 H 14.172056 V 3.2447336 c 0,-0.5026347 0.407935,-0.9105701 0.91057,-0.9105701 h 5.463421 c 0.502635,0 0.91057,0.4079354 0.91057,0.9105701 v 7.5176674 c 0,0 5.391486,-0.8705053 5.439746,-0.8705053 0.438895,0 0.824977,0.3177893 0.897822,0.7648793 z M 7.7980648,28.740697 V 5.9764441 H 2.3346439 V 28.740697 Z m 6.3739912,0 V 8.7081545 H 8.7086349 V 28.740697 Z M 20.546047,3.2447336 H 15.082626 V 28.740697 h 5.463421 z M 29.665407,27.880208 26.895452,10.802466 21.502146,11.677524 24.2721,28.755266 Z M 26.360948,13.195444 c -0.04006,-0.248586 -0.274082,-0.417042 -0.522667,-0.376976 l -2.696199,0.437073 c -0.248585,0.04006 -0.417041,0.274082 -0.376976,0.522668 0.04007,0.248585 0.274082,0.417041 0.522668,0.376065 L 25.983972,13.7172 c 0.248585,-0.04007 0.417041,-0.273171 0.376976,-0.521756 z m 0.486244,7.773537 c 0.190309,0 0.376066,0.05919 0.532684,0.172098 0.195772,0.141138 0.327805,0.354211 0.366049,0.592781 l 0.729367,4.493663 c 0.08013,0.496261 -0.256781,0.964294 -0.753042,1.044424 0,0 -1.894896,0.30322 -1.943156,0.30322 -0.19031,0 -0.376066,-0.05919 -0.532684,-0.172098 -0.195773,-0.141138 -0.327805,-0.354211 -0.366049,-0.592781 l -0.729367,-4.493663 c -0.08013,-0.496261 0.256781,-0.964294 0.753042,-1.044424 -9.11e-4,9.1e-4 1.893985,-0.30322 1.943156,-0.30322 z m 0,0.91057 -1.797465,0.291382 0.729367,4.493664 1.797465,-0.291382 z M 6.8874946,22.366706 v 4.552851 c 0,0.502634 -0.4079354,0.91057 -0.9105701,0.91057 H 4.1557842 c -0.5026347,0 -0.9105701,-0.407936 -0.9105701,-0.91057 v -4.552851 c 0,-0.502635 0.4079354,-0.91057 0.9105701,-0.91057 h 1.8211403 c 0.5026347,0 0.9105701,0.407935 0.9105701,0.91057 z m -0.9105701,0 H 4.1557842 v 4.552851 h 1.8211403 z m 10.0162715,4.552851 v -4.552851 c 0,-0.502635 0.407936,-0.91057 0.91057,-0.91057 h 1.821141 c 0.502634,0 0.91057,0.407935 0.91057,0.91057 v 4.552851 c 0,0.502634 -0.407936,0.91057 -0.91057,0.91057 h -1.821141 c -0.502634,0 -0.91057,-0.407936 -0.91057,-0.91057 z m 0.91057,0 h 1.821141 v -4.552851 h -1.821141 z"
   id="path2"
   style="fill:#000000;stroke-width:0.91057" />
</g>
</svg>
