<?xml version="1.0" encoding="UTF-8" standalone="no"?>
<!-- Generator: Adobe Illustrator 27.5.0, SVG Export Plug-In . SVG Version: 6.00 Build 0)  -->

<svg
   version="1.1"
   id="Layer_1"
   x="0px"
   y="0px"
   viewBox="0 0 48 47.999999"
   xml:space="preserve"
   sodipodi:docname="ramadhan poster.svg"
   width="48"
   height="48"
   inkscape:export-filename="..\TahfidhTracker\female teacher icon.svg"
   inkscape:export-xdpi="1"
   inkscape:export-ydpi="1"
   xmlns:inkscape="http://www.inkscape.org/namespaces/inkscape"
   xmlns:sodipodi="http://sodipodi.sourceforge.net/DTD/sodipodi-0.dtd"
   xmlns="http://www.w3.org/2000/svg"
   xmlns:svg="http://www.w3.org/2000/svg"><defs
   id="defs10017" /><sodipodi:namedview
   id="namedview10017"
   pagecolor="#ffffff"
   bordercolor="#000000"
   borderopacity="0.25"
   inkscape:showpageshadow="2"
   inkscape:pageopacity="0.0"
   inkscape:pagecheckerboard="0"
   inkscape:deskcolor="#d1d1d1"
   showguides="true"><inkscape:page
     x="6.2779465e-05"
     y="2.8220258e-05"
     width="17606.371"
     height="22922.363"
     id="page2"
     margin="0"
     bleed="0" /></sodipodi:namedview>

<path
   style="fill:#000000;stroke-width:0.632382"
   d="m 6996.2526,20809.964 c -986.546,-129.528 -1919.515,-348.924 -2828.242,-665.088 -883.427,-307.361 -2631.836,-1163.828 -2631.836,-1289.217 0,-278.329 490.684,-3292.63 595.782,-3659.924 174.299,-609.136 432.078,-1018.291 925.902,-1469.618 l 427.446,-390.66 127.882,-1367.808 c 277.704,-2970.2977 523.015,-4684.3853 864.737,-6042.2632 103.303,-410.488 169.86,-838.7104 147.904,-951.6058 -43.866,-225.5605 226.803,-836.573 400.037,-903.0491 57.427,-22.0366 236.491,-231.8388 397.92,-466.2268 758.826,-1101.782 1817.658,-1604.5042 3379.401,-1604.5042 1561.7434,0 2620.5754,502.7222 3379.3994,1604.5042 161.431,234.388 340.494,444.1902 397.922,466.2268 173.414,66.5455 443.921,677.4936 399.839,903.0491 -22.063,112.8954 41.967,523.4415 142.29,912.3249 331.205,1283.8512 592.948,3112.3492 870.549,6081.5441 l 127.882,1367.808 427.446,390.66 c 493.823,451.327 751.603,860.482 925.902,1469.618 105.098,367.294 595.782,3381.595 595.782,3659.924 0,125.389 -1748.409,981.856 -2631.837,1289.217 -2020.29,702.899 -4334.4384,941.813 -6442.1074,665.088 z m 2081.054,-1253.001 c 121.976,-146.974 44.439,-478.136 -127.387,-544.072 -206.162,-79.112 -417.241,26.55 -469.574,235.059 -59.242,236.041 84.647,425.837 322.84,425.837 97.441,0 220.796,-52.572 274.121,-116.824 z m -44.046,-1813.565 c 237.29,-237.29 100.763,-583.605 -230.075,-583.605 -330.838,0 -467.367,346.315 -230.076,583.605 67.901,67.901 171.435,123.455 230.076,123.455 58.641,0 162.175,-55.554 230.075,-123.455 z m 110.302,-2030.527 c 36.093,-182.167 -129.043,-360.011 -334.284,-360.011 -363.114,0 -483.215,375.898 -186.502,583.724 147.519,103.326 196.897,105.501 333.89,14.709 88.423,-58.604 172.525,-165.894 186.896,-238.422 z m 955.9014,-2259.499 c 741.626,-349.784 739.916,-347.186 595.534,-904.377 -68.288,-263.532 -124.16,-588.944 -124.16,-723.136 0,-134.194 -31.384,-243.989 -69.742,-243.989 -38.358,0 -312.344,114.82 -608.8584,255.155 -448.328,212.186 -631.726,255.154 -1089.052,255.154 -457.327,0 -640.724,-42.968 -1089.053,-255.154 -296.513,-140.335 -570.499,-255.155 -608.856,-255.155 -38.359,0 -70.162,114.897 -70.675,255.328 -0.513,140.431 -53.123,449.768 -116.911,687.419 -63.788,237.652 -116.398,457.118 -116.911,487.703 -1.429,85.249 671.303,460.11 1042.849,581.098 211.575,68.897 600.423,99.854 1077.4,85.777 610.138,-18.009 825.197,-59.22 1178.4354,-225.823 z m -5251.7934,-644.476 c 490.372,-189.32 1090.273,-385.314 1333.113,-435.544 l 441.529,-91.323 49.486,-361.044 c 82.739,-603.65 58.892,-736.721 -187.856,-1048.264 -574.708,-725.628 -783.968,-1649.6021 -783.968,-3461.5625 0,-711.7599 -31.236,-1250.0857 -72.534,-1250.0857 -193.669,0 -571.075,456.8308 -860,1040.9835 -357.413,722.6243 -426.895,1101.6517 -716.402,3908.0307 -155.493,1507.291 -188.658,2043.029 -126.475,2043.029 17.336,0 432.734,-154.899 923.107,-344.22 z m 8865.6584,88.483 c 0,-347.868 -288.261,-3118.0261 -435.159,-4181.8288 -95.819,-693.897 -179.934,-988.5245 -429.307,-1503.7292 -277.994,-574.3364 -672.424,-1050.7482 -869.932,-1050.7482 -41.298,0 -72.535,538.3258 -72.535,1250.0857 0,1811.9604 -209.259,2735.9345 -783.967,3461.5625 -246.495,311.222 -270.56,444.87 -188.247,1045.407 l 49.095,358.187 520.481,119.948 c 286.265,65.97 874.012,261.133 1306.103,433.693 432.094,172.561 812.139,315.864 844.546,318.454 32.406,2.588 58.922,-110.375 58.922,-251.031 z M 7989.3426,9855.2259 c 459.905,-208.688 1083.48,-203.053 1692.357,15.292 618.1154,221.6561 836.8464,156.0951 1178.4654,-353.227 491.773,-733.1872 727.269,-1669.6212 730.426,-2904.4848 l 1.556,-608.8582 h -223.121 c -122.714,0 -502.759,73.3799 -844.543,163.0668 -486.61,127.6898 -860.0364,163.0659 -1721.2974,163.0659 -861.262,0 -1234.687,-35.3761 -1721.297,-163.0659 -341.784,-89.6869 -727.201,-163.0668 -856.484,-163.0668 h -235.059 l 47.462,962.3881 c 52.049,1055.398 180.082,1589.3896 547.46,2283.3139 406.677,768.1511 734.344,909.4741 1404.075,605.576 z M 5542.8506,5803.7825 c 372.826,-188.3548 833.085,-181.7603 1779.992,25.5034 1035.043,226.5553 1925.643,226.5553 2960.6854,0 1289.844,-282.3268 1715.916,-211.3079 2344.585,390.8008 l 289.623,277.3886 -145.108,-564.1308 c -79.809,-310.272 -184.987,-612.1818 -233.727,-670.9112 -48.741,-58.73 -502.657,-189.8633 -1008.702,-291.408 -806.193,-161.774 -1143.742,-184.627 -2727.0134,-184.627 -1583.272,0 -1920.82,22.853 -2727.013,184.627 -506.045,101.5447 -954.44,226.0267 -996.434,276.626 -41.994,50.5995 -149.052,354.3471 -237.908,674.9939 l -161.556,582.9936 293.804,-281.4701 c 161.593,-154.8084 417.54,-343.9823 568.772,-420.3862 z m 1374.84,-2169.411 c 1204.368,-169.2481 3268.0664,-106.9995 4711.0154,142.1021 l 311.524,53.7794 -254.156,-320.8982 c -606.442,-765.6958 -1517.14,-1119.2713 -2882.8884,-1119.2713 -1365.747,0 -2276.446,353.5755 -2882.888,1119.2713 l -254.156,320.8982 311.525,-53.7794 c 171.339,-29.5792 594.35,-93.5249 940.024,-142.1021 z"
   id="path1" /></svg>
