<?xml version="1.0" encoding="UTF-8" standalone="no"?>
<!-- Uploaded to: SVG Repo, www.svgrepo.com, Generator: SVG Repo Mixer Tools -->

<svg
   width="800"
   height="800"
   viewBox="0 0 24 24"
   fill="none"
   version="1.1"
   id="svg3"
   sodipodi:docname="night-svgrepo-com.svg"
   xmlns:inkscape="http://www.inkscape.org/namespaces/inkscape"
   xmlns:sodipodi="http://sodipodi.sourceforge.net/DTD/sodipodi-0.dtd"
   xmlns="http://www.w3.org/2000/svg"
   xmlns:svg="http://www.w3.org/2000/svg">
  <defs
     id="defs3" />
  <sodipodi:namedview
     id="namedview3"
     pagecolor="#ffffff"
     bordercolor="#000000"
     borderopacity="0.25"
     inkscape:showpageshadow="2"
     inkscape:pageopacity="0.0"
     inkscape:pagecheckerboard="0"
     inkscape:deskcolor="#d1d1d1">
    <inkscape:page
       x="0"
       y="0"
       width="24"
       height="24"
       id="page2"
       margin="0"
       bleed="0" />
  </sodipodi:namedview>
  <path
     d="m 13.9139,2.43056 -0.7913,1.5826 c -0.0194,0.0387 -0.0507,0.07009 -0.0894,0.08944 l -1.5826,0.7913 c -0.1475,0.07371 -0.1475,0.28407 0,0.35777 l 1.5826,0.7913 c 0.0387,0.01936 0.07,0.05074 0.0894,0.08944 l 0.7913,1.58261 c 0.0737,0.14741 0.2841,0.14741 0.3578,0 L 15.063,6.13241 c 0.0193,-0.0387 0.0507,-0.07009 0.0894,-0.08944 l 1.5826,-0.7913 c 0.1474,-0.0737 0.1474,-0.28406 0,-0.35777 L 15.1524,4.1026 C 15.1137,4.08325 15.0823,4.05186 15.063,4.01316 l -0.7913,-1.5826 c -0.0737,-0.147413 -0.2841,-0.147412 -0.3578,0 z"
     fill="#0f0f0f"
     id="path1" />
  <path
     d="m 19.2419,5.07223 -0.7786,2.33592 c -0.0199,0.05972 -0.0668,0.10659 -0.1265,0.12649 l -2.3359,0.77864 c -0.1824,0.06078 -0.1824,0.3187 0,0.37948 l 2.3359,0.77864 c 0.0597,0.0199 0.1066,0.06677 0.1265,0.12649 l 0.7786,2.33591 c 0.0608,0.1823 0.3187,0.1823 0.3795,0 L 20.4,9.59789 C 20.42,9.53817 20.4668,9.4913 20.5265,9.4714 l 2.336,-0.77864 c 0.1823,-0.06078 0.1823,-0.3187 0,-0.37948 L 20.5265,7.53464 C 20.4668,7.51474 20.42,7.46787 20.4,7.40815 L 19.6214,5.07223 c -0.0608,-0.18234 -0.3187,-0.18234 -0.3795,0 z"
     fill="#0f0f0f"
     id="path2" />
  <path
     fill-rule="evenodd"
     clip-rule="evenodd"
     d="m 10.4075,13.6642 c 2.8273,2.8273 7.2442,3.0721 10.2566,0.7061 0.0373,-0.0293 0.0744,-0.059 0.1113,-0.0891 0.1394,-0.1138 0.2756,-0.2333 0.4083,-0.3586 0.0539,-0.0508 0.1072,-0.1025 0.1599,-0.1552 0.5121,-0.5122 1.5628,-0.2096 1.4081,0.4979 -0.0534,0.2445 -0.1152,0.4864 -0.185,0.7252 -0.0414,0.1416 -0.0856,0.2822 -0.1326,0.4217 -0.0128,0.038 -0.0259,0.0761 -0.0391,0.114 -1.4973,4.288 -5.6064,7.4741 -10.395,7.4741 -6.07513,0 -11,-4.9249 -11,-11 C 1,7.13315 4.29086,2.98258 8.66889,1.54252 L 8.72248,1.52504 C 8.8185,1.49401 8.91503,1.46428 9.01205,1.43587 9.26959,1.36046 9.5306,1.29438 9.79466,1.23801 10.5379,1.07934 10.8418,2.19074 10.3043,2.72815 10.251,2.78147 10.1987,2.83539 10.1473,2.88989 10.0456,2.99777 9.94766,3.10794 9.8535,3.22023 9.83286,3.24485 9.8124,3.26957 9.79212,3.29439 7.32966,6.30844 7.54457,10.8012 10.4075,13.6642 Z m -1.41419,1.4142 c 2.73149,2.7315 6.67909,3.5515 10.09389,2.3909 -1.6591,2.1331 -4.2372,3.531 -7.0872,3.531 -4.97056,0 -9,-4.0294 -9,-9 C 3,9.09163 4.45653,6.47161 6.66058,4.81846 5.41569,8.27071 6.2174,12.3025 8.99331,15.0784 Z"
     fill="#0f0f0f"
     id="path3" />
</svg>
