<?xml version="1.0" encoding="UTF-8" standalone="no"?>
<!-- Uploaded to: SVG Repo, www.svgrepo.com, Generator: SVG Repo Mixer Tools -->

<svg
   width="800"
   height="800"
   viewBox="0 0 24 24"
   fill="none"
   version="1.1"
   id="svg1"
   sodipodi:docname="bell-svgrepo-com.svg"
   xmlns:inkscape="http://www.inkscape.org/namespaces/inkscape"
   xmlns:sodipodi="http://sodipodi.sourceforge.net/DTD/sodipodi-0.dtd"
   xmlns="http://www.w3.org/2000/svg"
   xmlns:svg="http://www.w3.org/2000/svg">
  <defs
     id="defs1" />
  <sodipodi:namedview
     id="namedview1"
     pagecolor="#ffffff"
     bordercolor="#000000"
     borderopacity="0.25"
     inkscape:showpageshadow="2"
     inkscape:pageopacity="0.0"
     inkscape:pagecheckerboard="0"
     inkscape:deskcolor="#d1d1d1">
    <inkscape:page
       x="0"
       y="0"
       width="24"
       height="24"
       id="page2"
       margin="0"
       bleed="0" />
  </sodipodi:namedview>
  <path
     d="m 9.0016333,17 h -3.39559 c -1.25843,0 -1.88764,0 -2.02003,-0.0977 -0.14873,-0.1098 -0.18507,-0.1746 -0.20118,-0.3587 -0.01433,-0.1639 0.37131,-0.795 1.14261,-2.057 0.79635,-1.3031 1.47255,-3.2004 1.47255,-5.8866 0,-1.48521 0.63214,-2.90959 1.75735,-3.9598 C 8.8825633,3.59 10.408683,3 11.999983,3 c 1.5913,0 3.1174,0.59 4.2426,1.6402 1.1253,1.05021 1.7574,2.47459 1.7574,3.9598 0,2.6862 0.6762,4.5835 1.4726,5.8866 0.7712,1.262 1.1569,1.8931 1.1426,2.057 -0.0161,0.1841 -0.0525,0.2489 -0.2012,0.3587 C 20.281583,17 19.652383,17 18.393983,17 h -3.394 m -5.9983497,0 -0.00164,1 c 0,1.6569 1.3431897,3 2.9999897,3 1.6569,0 3,-1.3431 3,-3 v -1 m -5.9983497,0 h 5.9983497"
     stroke="#000000"
     stroke-width="2"
     stroke-linecap="round"
     stroke-linejoin="round"
     id="path1" />
</svg>
