<?xml version="1.0" encoding="UTF-8" standalone="no"?>
<!-- Created with Inkscape (http://www.inkscape.org/) -->

<svg
   version="1.1"
   id="svg1"
   width="981.33331"
   height="981.33331"
   viewBox="0 0 981.33331 981.33331"
   sodipodi:docname="Islamic book icon logo symbol,illustration design template_.jpg"
   xmlns:inkscape="http://www.inkscape.org/namespaces/inkscape"
   xmlns:sodipodi="http://sodipodi.sourceforge.net/DTD/sodipodi-0.dtd"
   xmlns="http://www.w3.org/2000/svg"
   xmlns:svg="http://www.w3.org/2000/svg">
  <defs
     id="defs1" />
  <sodipodi:namedview
     id="namedview1"
     pagecolor="#ffffff"
     bordercolor="#000000"
     borderopacity="0.25"
     inkscape:showpageshadow="2"
     inkscape:pageopacity="0.0"
     inkscape:pagecheckerboard="0"
     inkscape:deskcolor="#d1d1d1">
    <inkscape:page
       x="0"
       y="0"
       width="981.33331"
       height="981.33331"
       id="page2"
       margin="0"
       bleed="0" />
  </sodipodi:namedview>
  <g
     inkscape:groupmode="layer"
     inkscape:label="Image"
     id="g1">
    <path
       style="fill:#000000"
       d="M 229.33402,681.07637 C 221.50819,677.78558 216,669.71575 216,661.54124 c 0,-7.11774 4.84364,-23.91053 8.90465,-30.87223 6.25969,-10.73084 12.45416,-15.92836 38.85516,-32.60179 C 278.19192,588.9527 293,579.60176 296.66667,577.28736 l 6.66666,-4.20801 -4.66666,0.67636 c -38.61932,5.59727 -54.26388,7.46832 -56.90433,6.80561 -5.38081,-1.3505 -5.82589,-5.5126 -2.22483,-20.80514 4.48195,-19.0334 7.43819,-23.69853 18.73718,-29.56843 50.17278,-26.06508 72.85008,-37.12877 74.67088,-36.43006 1.16067,0.44539 11.17274,6.43528 22.24904,13.31087 11.07629,6.87559 40.83872,25.23045 66.13872,40.78857 25.3,15.55812 46.74118,28.98047 47.64707,29.82745 1.26615,1.18381 -24.48181,13.36853 -111.33333,52.68632 -115.92248,52.47825 -120.13678,54.14362 -128.31305,50.70547 z m 30.9613,-25.75852 c 3.87091,-1.75119 15.43801,-7.21291 25.70468,-12.13715 46.7069,-22.40222 131.60945,-62.80403 140.56863,-66.89111 6.57139,-2.9978 9.45551,-4.96362 8.57464,-5.84449 -0.73002,-0.73003 -24.38591,-15.42779 -52.56863,-32.6617 -50.36055,-30.79578 -51.24905,-31.27158 -51.69149,-27.68153 -0.30223,2.45234 0.44023,4.37384 2.25914,5.84671 1.49013,1.20663 21.64271,13.80154 44.78352,27.9887 23.1408,14.18715 42.05265,26.11801 42.02633,26.51301 -0.0263,0.39501 -36.77632,18.07172 -81.66667,39.28158 -44.89034,21.20985 -82.6688,39.45285 -83.95214,40.53998 -2.04491,1.73228 -3.39079,8.22997 -1.70468,8.22997 0.34576,0 3.79576,-1.43279 7.66667,-3.18397 z m 476.35551,25.99902 c -2.24553,-0.97177 -102.70876,-46.39125 -192.65084,-87.09753 -12.83333,-5.80816 -25.58333,-11.48581 -28.33333,-12.617 -5.3644,-2.20662 -6.23494,-3.67465 -2.9309,-4.94253 1.84217,-0.70691 60.10637,-36.52432 112.36708,-69.07668 10.50656,-6.54437 20.48033,-12.52648 22.16391,-13.29358 3.16643,-1.44272 1.19347,-2.37426 73.09942,34.51421 9.50976,4.8786 12.30331,7.03413 14.92553,11.51668 3.51091,6.00172 9.68148,30.29814 8.95416,35.25672 -0.98756,6.73282 -3.40989,6.66132 -61.5792,-1.81758 l -4.66667,-0.68023 6.66667,4.20801 c 64.15983,40.49769 64.31263,40.61136 71.76201,53.38165 4.15383,7.12081 8.90465,23.80696 8.90465,31.2755 0,6.0659 -3.68643,12.5986 -9.56734,16.95423 -3.91895,2.90252 -14.81173,4.28049 -19.11515,2.41813 z m -7.31751,-25.98512 c 0,-1.74354 -0.93404,-3.94526 -2.07564,-4.8927 -2.0138,-1.67131 -36.13572,-18.05224 -123.54518,-59.31042 -23.25812,-10.97808 -42.30803,-20.26014 -42.33315,-20.62681 -0.0471,-0.68748 22.3877,-14.68751 61.95398,-38.66125 26.39189,-15.99121 27.70037,-17.04692 27.10684,-21.87042 l -0.44018,-3.57725 -16.66666,10.22389 c -14.29564,8.76942 -27.18094,16.63993 -79.06215,48.29217 -4.25084,2.5934 -8.04164,5.22145 -8.42398,5.8401 -0.38235,0.61865 4.29561,3.4396 10.39547,6.26877 11.85919,5.5004 16.95917,7.91944 79.75732,37.83071 22.36667,10.65343 46.06667,21.9211 52.66667,25.03927 6.6,3.11816 18,8.54437 25.33333,12.05823 7.33333,3.51386 13.78333,6.4264 14.33333,6.47231 0.55,0.0459 1,-1.34306 1,-3.0866 z M 459.33333,563.37483 C 396.08627,524.13272 326.62995,481.22802 220.66667,415.94518 200.13333,403.29482 182.82329,392.45486 182.19989,391.8564 c -0.62339,-0.59847 11.77687,-22.59807 27.55613,-48.88801 l 28.68956,-47.79989 18.29185,-9.08408 18.29186,-9.08408 -2.64709,4.41741 c -1.45591,2.42958 -16.83749,26.48753 -34.18131,53.46211 -17.34382,26.97458 -31.53422,49.54433 -31.53422,50.15499 0,0.61066 16.05,10.60689 35.66666,22.21383 19.61667,11.60694 41.36667,24.49278 48.33334,28.63519 122.39712,72.77793 199.20502,117.45113 201.0691,116.94631 1.24532,-0.33725 34.96422,-19.96434 74.93089,-43.61575 39.96667,-23.65141 103.11666,-60.99968 140.33333,-82.99616 37.21667,-21.99648 67.66667,-40.50398 67.66667,-41.12779 0,-0.98583 -35.85512,-57.50436 -59.91416,-94.44287 -4.48535,-6.88649 -7.98958,-12.65318 -7.78718,-12.81487 0.2024,-0.16169 8.33023,3.59705 18.06184,8.35275 l 17.69384,8.64673 28.77294,47.96803 c 15.82511,26.38242 28.26288,48.4657 27.63949,49.07395 -0.62339,0.60826 -21.83344,13.81517 -47.13344,29.34868 -25.3,15.53352 -56.2,34.57564 -68.66667,42.31583 -39.18936,24.33154 -48.26551,29.95117 -91.33333,56.5504 -75.44915,46.59836 -101.21788,62.41353 -101.6121,62.3629 -0.21334,-0.0274 -14.18789,-8.61213 -31.05456,-19.07718 z m -1.16399,-40.90179 c -3.494,-2.21583 -10.36147,-6.3222 -15.26104,-9.12527 -4.89957,-2.80307 -32.0083,-18.78762 -60.24164,-35.52122 -28.23333,-16.73361 -57.63333,-34.12536 -65.33333,-38.64835 -50.81754,-29.85027 -80.87045,-47.82819 -82.15836,-49.14788 -1.10718,-1.13448 2.76974,-9.09 15.03971,-30.86182 9.09227,-16.13334 19.36354,-34.53515 22.82503,-40.89291 l 6.29362,-11.55958 16,-5.9108 c 8.8,-3.25095 16.16207,-5.78707 16.36015,-5.63583 0.19809,0.15124 -7.15191,15.73791 -16.33333,34.63706 -20.18262,41.54416 -20.47011,43.02643 -10.20722,52.62744 11.61701,10.86781 37.86285,22.18687 69.74503,30.079 37.81279,9.36019 61.14773,22.85641 93.81209,54.25806 C 462.32813,479.86258 486,507.60299 486,510.47 c 0,0.96163 -19.82865,16.03183 -21.09391,16.03183 -0.2112,0 -3.24274,-1.81296 -6.73675,-4.02879 z m 47.16399,-3.50213 c -5.5,-4.02932 -10,-7.85415 -10,-8.49961 0,-2.81949 23.40495,-30.30414 37.06061,-43.52063 31.64228,-30.62464 55.35782,-44.39274 93.60605,-54.34316 35.19536,-9.1562 58.3603,-19.11583 70.18041,-30.17363 10.26912,-9.60685 9.96332,-11.20634 -9.96853,-52.13954 -9.05013,-18.58588 -15.97367,-33.98466 -15.38565,-34.21951 1.23236,-0.4922 27.71128,8.98136 30.09611,10.76771 0.87396,0.65463 11.0074,18.09578 22.51876,38.7581 11.51136,20.66232 21.72409,38.86283 22.69494,40.44558 1.37696,2.24479 1.40949,3.16459 0.14791,4.182 -0.8895,0.71736 -22.91728,13.87742 -48.95062,29.24459 -26.03333,15.36717 -76.947,45.47853 -113.1415,66.91414 -36.19449,21.43561 -66.49449,39.18448 -67.33333,39.44192 -0.83884,0.25745 -6.02516,-2.82863 -11.52516,-6.85796 z m -28,-35.41684 c -24.11838,-25.7868 -52.09487,-49.44478 -74.24904,-62.78778 -16.39899,-9.87678 -25.33943,-13.54856 -45.89654,-18.84945 -28.49868,-7.34871 -44.3944,-13.52714 -58.85442,-22.87586 -7.09009,-4.58389 -9,-6.51386 -9,-9.09452 0,-2.50554 36.94803,-80.8371 39.18503,-83.0741 0.26033,-0.26033 6.7002,2.8199 14.31082,6.84496 21.29355,11.26163 39.40827,18.89005 65.74043,27.68445 13.25338,4.42635 28.66352,10.40805 34.24476,13.29266 18.61442,9.62068 35.10013,25.90455 43.338,42.8074 2.05506,4.21667 4.08649,7.66667 4.51429,7.66667 0.4278,0 2.42024,-3.34883 4.42764,-7.44184 8.41716,-17.16226 24.81537,-33.41288 43.42465,-43.03381 5.58124,-2.88549 19.74771,-8.39979 31.48104,-12.25402 25.14201,-8.25878 46.20875,-17.05758 67.24171,-28.08437 14.00014,-7.33975 15.35346,-7.79496 16.6136,-5.58831 6.40657,11.21872 38.14469,78.62906 38.14469,81.01761 0,8.27492 -30.07357,22.49936 -68,32.16317 -38.09729,9.70735 -66.83745,28.54928 -111.05879,72.80967 -12.31566,12.32654 -22.51566,22.3958 -22.66666,22.37613 -0.151,-0.0197 -5.97454,-6.13006 -12.94121,-13.57866 z"
       id="path1" />
  </g>
</svg>
