<?xml version="1.0" encoding="UTF-8" standalone="no"?>
<!-- Uploaded to: SVG Repo, www.svgrepo.com, Generator: SVG Repo Mixer Tools -->

<svg
   width="504.99997"
   height="516.66669"
   viewBox="0 0 15.149999 15.500001"
   fill="none"
   version="1.1"
   id="svg2"
   sodipodi:docname="setting-5-svgrepo-com (1).svg"
   xmlns:inkscape="http://www.inkscape.org/namespaces/inkscape"
   xmlns:sodipodi="http://sodipodi.sourceforge.net/DTD/sodipodi-0.dtd"
   xmlns="http://www.w3.org/2000/svg"
   xmlns:svg="http://www.w3.org/2000/svg">
  <defs
     id="defs2" />
  <sodipodi:namedview
     id="namedview2"
     pagecolor="#ffffff"
     bordercolor="#000000"
     borderopacity="0.25"
     inkscape:showpageshadow="2"
     inkscape:pageopacity="0.0"
     inkscape:pagecheckerboard="0"
     inkscape:deskcolor="#d1d1d1">
    <inkscape:page
       x="0"
       y="0"
       width="15.149999"
       height="15.500001"
       id="page2"
       margin="0"
       bleed="0" />
  </sodipodi:namedview>
  <g
     id="g2"
     transform="matrix(0.85662141,0,0,0.85662141,1.0860929,1.1111845)">
    <path
       fill-rule="evenodd"
       clip-rule="evenodd"
       d="m 6.892499,14.75 c -0.3574,0 -0.6623,-0.2653 -0.7205,-0.627 -0.0536,-0.2926 -0.259,-0.5317 -0.53529,-0.623 -0.22513,-0.0793 -0.44526,-0.1728 -0.6591,-0.28 -0.25446,-0.1335 -0.55972,-0.1135 -0.7956,0.052 -0.28545,0.2105 -0.67758,0.1779 -0.92625,-0.077 l -0.9672,-0.992 c -0.2603,-0.267 -0.29412,-0.6879 -0.07995,-0.995 0.16517,-0.2475 0.18896,-0.5666 0.0624,-0.837 -0.08339,-0.1878 -0.15695,-0.3800999 -0.22035,-0.5759999 -0.09081,-0.3087 -0.34146,-0.5399 -0.65033,-0.6 -0.37246,-0.061 -0.64742999,-0.3891 -0.65031999,-0.776 v -1.241 c -0.00198,-0.4459 0.31203999,-0.8273 0.74099999,-0.9 0.32542,-0.0635 0.59715,-0.2921 0.7215,-0.607 0.03705,-0.08867 0.07605,-0.17667 0.117,-0.264 0.16538,-0.32656 0.14254,-0.71989 -0.05948,-1.024 -0.25263,-0.36012 -0.21384,-0.85491 0.09165,-1.169 l 0.71078,-0.729 c 0.35056,-0.35968 0.90344,-0.40623 1.3065,-0.11 l 0.02242,0.016 c 0.30097,0.20776 0.68395,0.24539 1.0179,0.1 0.35727,-0.13189 0.62062,-0.44676 0.69322,-0.829 l 0.0098,-0.034 c 0.0802,-0.50603 0.5063,-0.87778999 1.0062,-0.87799999 h 0.858 c 0.5133,-2.4e-4 0.9514,0.38056999 1.0354,0.89999999 l 0.0156,0.07 c 0.0689,0.36617 0.3186,0.66922 0.6591,0.8 0.3282,0.14447 0.7056,0.10674 1.0004,-0.1 l 0.0487,-0.036 c 0.4135,-0.30566 0.9821,-0.25865 1.3426,0.111 l 0.6542,0.672 c 0.3279,0.33816 0.3691,0.86993 0.0975,1.257 -0.2128,0.32352 -0.2399,0.73925 -0.0712,1.089 l 0.042,0.1 c 0.1366,0.3415 0.4323,0.589 0.7858,0.658 0.4621,0.0773 0.8019,0.4859 0.8034,0.966 v 1.113 c -10e-5,0.4234 -0.2987,0.7846 -0.7059,0.854 -0.3349,0.0659 -0.6077,0.3146 -0.7108,0.648 -0.0455,0.1333 -0.0962,0.2666999 -0.1521,0.3999999 -0.1301,0.293 -0.1012,0.6344 0.0761,0.9 0.2339,0.3338 0.1976,0.7923 -0.0858,1.083 l -0.9077,0.932 c -0.2596,0.2662 -0.669,0.3005 -0.9672,0.081 -0.249,-0.1745 -0.5715,-0.1937 -0.8385,-0.05 -0.1903,0.0967 -0.3856,0.1825 -0.585,0.257 -0.2789,0.0987 -0.4845,0.3435 -0.5382,0.641 -0.0569,0.3743 -0.3698,0.6512 -0.7391,0.654 z"
       stroke="#000000"
       stroke-width="1.5"
       stroke-linecap="round"
       stroke-linejoin="round"
       id="path1" />
    <path
       fill-rule="evenodd"
       clip-rule="evenodd"
       d="m 9.849699,7.7500001 c 0,1.2885 -1.0184,2.3329999 -2.2747,2.3329999 -1.2563,0 -2.27467,-1.0444999 -2.27467,-2.3329999 0,-1.2885 1.01837,-2.33301 2.27467,-2.33301 1.2563,0 2.2747,1.04451 2.2747,2.33301 z"
       stroke="#000000"
       stroke-width="1.5"
       stroke-linecap="round"
       stroke-linejoin="round"
       id="path2" />
  </g>
</svg>
