<?xml version="1.0" encoding="UTF-8" standalone="no"?>
<!-- Uploaded to: SVG Repo, www.svgrepo.com, Generator: SVG Repo Mixer Tools -->

<svg
   width="800"
   height="800"
   viewBox="0 0 72 72"
   version="1.1"
   id="svg2"
   sodipodi:docname="files-folder-friends-svgrepo-com.svg"
   xmlns:inkscape="http://www.inkscape.org/namespaces/inkscape"
   xmlns:sodipodi="http://sodipodi.sourceforge.net/DTD/sodipodi-0.dtd"
   xmlns="http://www.w3.org/2000/svg"
   xmlns:svg="http://www.w3.org/2000/svg">
  <defs
     id="defs2" />
  <sodipodi:namedview
     id="namedview2"
     pagecolor="#ffffff"
     bordercolor="#000000"
     borderopacity="0.25"
     inkscape:showpageshadow="2"
     inkscape:pageopacity="0.0"
     inkscape:pagecheckerboard="0"
     inkscape:deskcolor="#d1d1d1">
    <inkscape:page
       x="0"
       y="0"
       width="72"
       height="72"
       id="page2"
       margin="0"
       bleed="0" />
  </sodipodi:namedview>
  <g
     fill="none"
     fill-rule="evenodd"
     id="g2">
    <path
       d="m -109.74834,66.119205 v 0 c 19.882247,0 35.999996,-16.117749 35.999996,-36 v 0 c 0,-19.882251 -16.117749,-35.9999997 -35.999996,-35.9999997 v 0 c -19.88226,0 -36,16.1177487 -36,35.9999997 v 0 c 0,19.882251 16.11774,36 36,36 z"
       fill="#4a4a4a"
       id="path1" />
    <path
       d="m 22.199,43.9405 c 1.826,0 3.508,-0.625 4.842,-1.672 l 14.906,7.359 c 0,0.03 -0.002,0.057 -0.002,0.086 0,4.338 3.518,7.856 7.856,7.856 4.337,0 7.855,-3.518 7.855,-7.856 0,-4.337 -3.518,-7.855 -7.855,-7.855 -2.309,0 -4.383,0.994 -5.819,2.578 l -14.056,-6.939 c 0.082,-0.457 0.128,-0.928 0.128,-1.411 0,-0.097 -0.003,-0.193 -0.007,-0.289 l 14.541,-7.636 c 1.388,1.23 3.213,1.98 5.213,1.98 4.339,0 7.855,-3.517 7.855,-7.855 0,-4.34 -3.518,-7.856 -7.855,-7.856 -4.338,0 -7.856,3.516 -7.856,7.856 0,0.324 0.024,0.642 0.061,0.955 l -14.129,7.42 c -1.43,-1.496 -3.444,-2.43 -5.678,-2.43 -4.338,0 -7.855,3.518 -7.855,7.855 0,4.338 3.517,7.854 7.855,7.854"
       fill="#FFF"
       id="path2"
       style="fill:#000000" />
  </g>
</svg>
