<?xml version="1.0" encoding="UTF-8" standalone="no"?>
<!-- Created with Inkscape (http://www.inkscape.org/) -->

<svg
   width="972.42151"
   height="874.65283"
   viewBox="0 0 257.28652 231.41856"
   version="1.1"
   id="svg1"
   xml:space="preserve"
   sodipodi:docname="tahfidh tracker logo.svg"
   xmlns:inkscape="http://www.inkscape.org/namespaces/inkscape"
   xmlns:sodipodi="http://sodipodi.sourceforge.net/DTD/sodipodi-0.dtd"
   xmlns="http://www.w3.org/2000/svg"
   xmlns:svg="http://www.w3.org/2000/svg"><sodipodi:namedview
     id="namedview1"
     pagecolor="#ffffff"
     bordercolor="#000000"
     borderopacity="0.25"
     inkscape:showpageshadow="2"
     inkscape:pageopacity="0.0"
     inkscape:pagecheckerboard="0"
     inkscape:deskcolor="#d1d1d1"
     inkscape:document-units="mm"><inkscape:page
       x="1.1437591e-21"
       y="0"
       width="257.28653"
       height="231.41856"
       id="page2"
       margin="0"
       bleed="0" /></sodipodi:namedview><defs
     id="defs1"><filter
       inkscape:collect="always"
       style="color-interpolation-filters:sRGB"
       id="filter15"
       x="-0.50160737"
       y="-0.46701374"
       width="2.0032147"
       height="1.9340275"><feGaussianBlur
         inkscape:collect="always"
         stdDeviation="7.2857666"
         id="feGaussianBlur15" /></filter><filter
       inkscape:collect="always"
       style="color-interpolation-filters:sRGB"
       id="filter17"
       x="-0.37830814"
       y="-0.96399089"
       width="1.7566163"
       height="2.9279818"><feGaussianBlur
         inkscape:collect="always"
         stdDeviation="8.7210573"
         id="feGaussianBlur17" /></filter></defs><g
     inkscape:label="Layer 1"
     inkscape:groupmode="layer"
     id="layer1"
     transform="translate(312.69288,-375.70782)"><rect
       style="fill:#274778;fill-opacity:1;stroke-width:0.1;stroke-linecap:round;stroke-linejoin:round"
       id="rect15"
       width="231.51041"
       height="215.52516"
       x="-290.707"
       y="385.46683"
       ry="26.070992" /><path
       style="fill:#ffffff;stroke:none;stroke-width:0.812112"
       d="m -183.22124,463.15136 c 0.61581,-1.57771 -0.23214,-4.07536 -0.50247,-5.72991 -0.70087,-4.28953 -1.26908,-8.60083 -1.95839,-12.89228 -0.1714,-1.06713 -0.41219,-5.95329 -2.57205,-4.78796 -1.67176,0.90198 0.12767,4.67726 0.48944,5.93395 1.66293,5.7766 3.3977,11.5679 4.54347,17.4762 m 12.0328,0.2865 c 2.56667,-5.33044 3.20187,-12.5908 4.83017,-18.3357 0.34158,-1.2051 2.0513,-5.01163 0.0102,-5.51459 -2.17055,-0.53486 -2.15797,3.99231 -2.30633,5.22809 -0.73654,6.13536 -2.40659,12.44965 -2.53402,18.6222 m -14.32476,11.4598 c 0.51816,-1.75154 -0.89773,-4.31909 -1.42518,-6.01639 -1.68923,-5.43579 -3.65496,-10.79184 -5.85879,-16.04374 -0.49466,-1.17884 -2.42741,-7.29148 -4.53594,-5.22942 -1.61002,1.57453 1.67322,5.51729 2.42835,6.9484 3.39827,6.44035 7.45976,13.27811 9.39156,20.34115 m 16.33022,0.2865 c 1.71962,-2.27453 2.51884,-5.69247 3.68466,-8.30836 1.95417,-4.38483 4.25444,-8.67492 6.54074,-12.89229 0.6849,-1.26338 4.1093,-5.84921 1.48996,-6.68622 -2.30964,-0.73804 -3.66059,4.63755 -4.26958,6.11324 -2.89697,7.01992 -5.90117,14.31004 -7.44578,21.77363 m -22.63311,2.86496 c 0.004,-2.06054 -2.42422,-4.88544 -3.53653,-6.5894 -3.6054,-5.52315 -7.56834,-10.7151 -11.81683,-15.75723 -1.18016,-1.40062 -5.02527,-7.22661 -7.10668,-4.51826 -1.70871,2.22337 3.33614,5.51712 4.69733,6.78457 6.58892,6.13518 12.50524,12.76128 17.76271,20.08032 m 29.22251,0 c 2.48878,-2.44774 4.36287,-5.66233 6.67117,-8.30837 3.5859,-4.11055 7.51926,-7.89373 11.37802,-11.7463 1.30763,-1.30553 6.34846,-4.50899 4.6204,-6.78481 -1.99507,-2.62748 -5.98993,3.21764 -7.07638,4.49285 -4.32472,5.07605 -8.46145,10.37857 -11.99014,16.04372 -1.2506,2.00778 -2.88549,4.03608 -3.60307,6.30291 m -45.26625,-6.01641 c -3.05318,-4.24487 -8.38843,-7.67017 -12.31929,-11.12888 -0.79662,-0.70093 -3.81889,-3.85355 -4.69202,-1.69686 -0.75544,1.86601 2.35286,3.22551 3.54604,3.94439 4.61008,2.77755 8.90729,6.0429 13.46527,8.88135 m 61.30997,0.2865 c 4.69098,-2.92127 9.04574,-6.402 13.75178,-9.33299 1.09447,-0.68164 4.35274,-2.03696 3.41738,-3.80247 -1.13638,-2.14495 -3.93365,1.04654 -4.84986,1.84057 -3.95888,3.43092 -9.2662,7.05013 -12.3193,11.29489 m -50.42315,14.61126 c -4.35951,-4.75706 -12.78806,-7.56641 -18.62219,-10.07044 -1.27714,-0.54815 -6.5045,-3.3985 -6.5045,-0.24339 0,2.1628 4.3907,2.49148 5.93151,2.90828 6.73208,1.82108 12.80127,4.74353 19.19518,7.40555 m 39.53634,0 c 6.60155,-2.74848 12.8517,-5.59808 19.76816,-7.56958 1.43565,-0.40922 5.8558,-0.80841 5.56323,-3.00179 -0.36433,-2.73142 -5.20139,-0.0631 -6.42271,0.46357 -4.48731,1.93492 -8.90986,4.04187 -13.17878,6.42336 -1.89917,1.05949 -4.30446,2.02045 -5.7299,3.68444 m -42.11479,5.4434 c -4.2635,-3.18922 -12.33317,-3.76881 -17.47622,-4.69445 -1.10196,-0.19833 -6.29587,-1.53313 -5.25793,1.19218 0.58725,1.54194 4.23349,1.21015 5.54443,1.21031 5.80209,7.4e-4 11.52864,1.12413 17.18972,2.29196 m 44.69325,-0.57299 c 1.59442,0.57038 4.06119,-0.4791 5.7299,-0.7379 4.10361,-0.63643 8.23892,-0.5669 12.3193,-1.10265 1.14454,-0.15028 5.38454,0.31967 4.68074,-1.87129 -0.60436,-1.88139 -4.19055,-0.61416 -5.54024,-0.35546 -5.81673,1.11494 -11.43736,2.73652 -17.1897,4.0673 m -0.573,0.2865 0.2865,0.28649 -0.2865,-0.28649 m -79.07267,13.46527 c 16.72064,-3.15036 36.1541,-6.67789 48.34297,8.30837 1.97793,2.43187 3.71496,5.15036 4.98471,8.02186 1.55298,3.512 2.88416,7.35473 3.39837,11.17332 h 0.28649 c 2.07554,-6.11917 3.20633,-12.08006 7.08966,-17.47621 11.55217,-16.05254 32.84366,-14.23492 49.92289,-10.02734 -2.67816,-6.96235 -10.65707,-8.39779 -17.18972,-9.47733 -16.32729,-2.69813 -38.27222,5.39042 -39.82283,24.37509 -1.45695,-4.3025 -2.1541,-8.2092 -4.88191,-12.0328 -7.75406,-10.8689 -21.78777,-14.10956 -34.36793,-12.35666 -6.85534,0.95521 -14.66953,2.54988 -17.7627,9.4917 m 1.14598,8.02187 c 13.72276,-2.33258 31.41809,-9.05724 43.54727,1.76871 2.72157,2.42914 4.4868,5.15002 6.30289,8.25862 0.15172,-4.84104 -5.9006,-10.66967 -9.45433,-13.16839 -7.96511,-5.60045 -17.32398,-6.09454 -26.64406,-4.71501 -2.3559,0.34872 -5.96534,0.27366 -8.02076,1.5125 -2.1154,1.275 -4.31824,4.33767 -5.73101,6.34357 m 61.59647,10.02733 h 0.28649 c 2.07472,-3.51805 4.11452,-6.5538 7.44888,-9.03079 11.61494,-8.62832 29.74411,-5.11505 42.40129,-0.99654 -3.07251,-6.59004 -8.79977,-7.27329 -15.18424,-8.10255 -14.48746,-1.88175 -29.83238,3.09339 -34.95242,18.12988 m -90.81898,16.33023 47.27171,-1.99419 21.77363,-0.84511 6.58939,-0.31215 c -3.09436,-5.35258 -9.93254,-6.26815 -15.47074,-6.99747 -3.77677,-0.49736 -7.68631,0.12379 -11.45981,0.38244 -11.45791,0.78537 -23.19744,3.14545 -34.66592,3.17709 l 12.60579,-14.61126 -5.15691,0.2865 9.74083,-10.60032 -6.57811,1.14974 -5.16819,5.72614 -12.57263,15.47075 -6.90904,9.16784 m 139.23667,-31.51447 9.45434,10.60032 -5.15691,-0.2865 c 2.96642,5.13191 8.4445,10.36232 12.60578,14.61126 -15.31488,-0.0102 -30.79147,-4.97051 -46.12572,-3.48658 -4.78139,0.46271 -13.60847,1.59694 -15.18425,7.21102 l 75.34824,2.86495 -6.93314,-9.16784 -10.80634,-13.17879 -6.92474,-7.97477 -6.27726,-1.19307 m -111.44664,7.16238 v 0.28649 c 12.32397,-0.10203 24.56661,-2.96681 36.67139,1.16853 3.71417,1.26887 6.51202,3.28721 9.74084,5.42086 -7.5893,-10.77391 -23.02571,-11.05143 -34.66592,-9.53502 -3.92565,0.5114 -8.09946,1.0426 -11.74631,2.65914 m 68.75886,6.58938 c 10.62413,-7.02058 22.16372,-8.04416 34.66592,-7.18802 3.81135,0.261 7.7251,0.25156 11.4598,1.17163 -2.137,-2.62858 -7.99251,-2.7707 -11.17331,-3.22904 -9.18259,-1.32319 -18.77262,-1.33973 -27.21704,3.0166 -2.64466,1.36433 -6.39608,3.48013 -7.73537,6.22883 m -73.34278,3.72445 c 13.38346,-3.79787 30.34429,-8.18318 43.83377,-2.73519 3.79671,1.53337 6.33987,3.95821 9.45434,6.45963 -6.55437,-12.70209 -25.00816,-13.24669 -37.24438,-12.08144 -2.80307,0.26693 -6.52519,-0.19999 -9.16364,0.83428 -2.26337,0.88723 -5.87388,5.36503 -6.88009,7.52272 m 70.76432,3.72444 h 0.28649 c 3.04933,-4.31694 8.76298,-6.69203 13.75177,-7.8353 13.45901,-3.08436 25.57197,2.05962 38.67686,3.82436 -1.13114,-2.18093 -4.27628,-6.3037 -6.60067,-7.23622 -3.31498,-1.32991 -8.75786,-1.07214 -12.30802,-1.07214 -9.99559,0 -20.49437,-0.10697 -28.64952,6.61348 -1.94557,1.60331 -4.11121,3.35956 -5.15691,5.70582 m -73.34278,-1.14598 v 0.28648 c 9.7571,-0.77 19.45705,-2.21809 29.22251,-2.89059 5.97435,-0.41142 11.96458,-0.61771 17.76271,1.17892 3.25112,1.00742 5.75216,2.80637 8.59485,4.57663 -2.3487,-3.3063 -6.8439,-5.42045 -10.60032,-6.68467 -10.05911,-3.38537 -21.87086,-1.45065 -32.08746,0.26329 -4.23172,0.70991 -9.11025,1.11967 -12.89229,3.26994 m 73.62927,3.15144 c 3.01643,-1.73528 5.44604,-3.76322 8.88135,-4.74795 15.10954,-4.33118 31.17835,1.75686 46.41222,1.88299 -3.04358,-2.82278 -9.50905,-3.09213 -13.46527,-3.74742 -9.9847,-1.65384 -21.40613,-3.3043 -31.22798,-0.0714 -3.74761,1.23355 -8.21325,3.44095 -10.60032,6.68379 m -96.54889,11.4598 c 18.00785,0 36.15468,-1.22886 54.1476,-2.01674 6.90761,-0.30247 13.99582,-1.14623 20.91304,-0.84268 2.74611,0.12052 1.82776,3.75918 4.31092,3.9886 3.56128,0.32904 7.29697,0.0168 10.87443,0.0168 1.74722,0 4.01154,0.38243 5.69896,-0.0911 1.55117,-0.43528 1.33749,-2.53738 2.44273,-3.46048 0.99262,-0.82906 2.97251,-0.46131 4.17761,-0.45937 24.072,0.0387 48.12888,2.86495 72.19679,2.86495 -1.11419,-3.27709 -3.75872,-2.75227 -6.58938,-2.87623 -5.27081,-0.23079 -10.80943,-0.0259 -16.04374,-0.64351 -10.75592,-1.26909 -21.84106,-0.88819 -32.66045,-1.36196 -6.97996,-0.30563 -14.51982,-1.45701 -21.48272,-0.8314 -2.42865,0.2182 -1.41951,3.34598 -3.45894,3.90306 -4.39934,1.20169 -10.59661,0.0911 -15.16767,0.0911 -0.0984,-1.12713 -0.32825,-2.9983 -1.3319,-3.71648 -1.11803,-0.80001 -3.96562,-0.34249 -5.25749,-0.17287 -3.30717,0.43424 -6.97889,0.4351 -10.31383,0.45119 -15.70203,0.0757 -31.61243,0.9077 -47.27171,1.98004 -4.36402,0.29885 -13.17058,-1.57835 -15.18425,3.17708 z"
       id="path14" /><ellipse
       style="opacity:0.30843373;fill:#ffffff;fill-opacity:1;stroke-width:0.0585569;stroke-linecap:round;stroke-linejoin:round;filter:url(#filter15)"
       id="path15"
       cx="-177.32796"
       cy="485.68039"
       rx="17.429808"
       ry="18.720905" /><path
       d="m -244.02596,383.80176 c -19.85027,1.02387 -31.97976,-2.04041 -36.99355,7.87038 13.50568,36.03648 89.64823,-10.58628 36.99355,-7.87038 z"
       style="opacity:0.33494;mix-blend-mode:normal;fill:#ffffff;stroke-width:0.1;stroke-linecap:round;stroke-linejoin:round;filter:url(#filter17)"
       id="path17"
       sodipodi:nodetypes="scs"
       transform="matrix(2.5707465,0,0,1,470.98558,12.95163)" /><path
       d="m -244.02596,383.80176 c -19.85027,1.02387 -31.97976,-2.04041 -36.99355,7.87038 13.50568,36.03648 89.64823,-10.58628 36.99355,-7.87038 z"
       style="opacity:0.233735;mix-blend-mode:normal;fill:#ffffff;stroke-width:0.1;stroke-linecap:round;stroke-linejoin:round;filter:url(#filter17)"
       id="path18"
       sodipodi:nodetypes="scs"
       transform="matrix(-2.5707465,0,0,1,-839.08477,180.79672)" /></g></svg>
